HIERARCHY
ROOT RootJoint
{
    OFFSET   0.000000   0.000000   0.000000
    CHANNELS 6 Xposition Yposition Zposition Xrotation Yrotation Zrotation
    JOINT pelvis_lowerback
    {
        OFFSET   0.000000   0.093605   0.000000
        CHANNELS 3 Xrotation Yrotation Zrotation
        JOINT lowerback_torso
        {
            OFFSET   0.000000   0.100000   0.000000
            CHANNELS 3 Xrotation Yrotation Zrotation
            JOINT torso_head
            {
                OFFSET   0.000000   0.282350   0.000000
                CHANNELS 3 Xrotation Yrotation Zrotation
                End Site
                {
                    OFFSET   0.000000   0.192650   0.000000
                }
            }
            JOINT rTorso_Clavicle
            {
                OFFSET  -0.001000   0.157500   0.000000
                CHANNELS 3 Xrotation Yrotation Zrotation
                JOINT rShoulder
                {
                    OFFSET  -0.117647   0.000000   0.000000
                    CHANNELS 3 Xrotation Yrotation Zrotation
                    JOINT rElbow
                    {
                        OFFSET  -0.245000   0.000000   0.000000
                        CHANNELS 3 Xrotation Yrotation Zrotation
                        JOINT rWrist
                        {
                            OFFSET  -0.240000   0.000000   0.000000
                            CHANNELS 3 Xrotation Yrotation Zrotation
                            End Site
                            {
                                OFFSET  -0.116353  -0.002500   0.000000
                            }
                        }
                    }
                }
            }
            JOINT lTorso_Clavicle
            {
                OFFSET   0.001000   0.157500   0.000000
                CHANNELS 3 Xrotation Yrotation Zrotation
                JOINT lShoulder
                {
                    OFFSET   0.117647   0.000000   0.000000
                    CHANNELS 3 Xrotation Yrotation Zrotation
                    JOINT lElbow
                    {
                        OFFSET   0.245000   0.000000   0.000000
                        CHANNELS 3 Xrotation Yrotation Zrotation
                        JOINT lWrist
                        {
                            OFFSET   0.240000   0.000000   0.000000
                            CHANNELS 3 Xrotation Yrotation Zrotation
                            End Site
                            {
                                OFFSET   0.116353  -0.002500   0.000000
                            }
                        }
                    }
                }
            }
        }
    }
    JOINT rHip
    {
        OFFSET  -0.100000  -0.051395   0.000000
        CHANNELS 3 Xrotation Yrotation Zrotation
        JOINT rKnee
        {
            OFFSET   0.000000  -0.410000   0.000000
            CHANNELS 3 Xrotation Yrotation Zrotation
            JOINT rAnkle
            {
                OFFSET   0.000000  -0.390000   0.000000
                CHANNELS 3 Xrotation Yrotation Zrotation
                JOINT rToeJoint
                {
                    OFFSET   0.000000  -0.050000   0.130000
                    CHANNELS 3 Xrotation Yrotation Zrotation
                    End Site
                    {
                        OFFSET  -0.010000   0.002000   0.060000
                    }
                }
            }
        }
    }
    JOINT lHip
    {
        OFFSET   0.100000  -0.051395   0.000000
        CHANNELS 3 Xrotation Yrotation Zrotation
        JOINT lKnee
        {
            OFFSET   0.000000  -0.410000   0.000000
            CHANNELS 3 Xrotation Yrotation Zrotation
            JOINT lAnkle
            {
                OFFSET   0.000000  -0.390000   0.000000
                CHANNELS 3 Xrotation Yrotation Zrotation
                JOINT lToeJoint
                {
                    OFFSET   0.000000  -0.050000   0.130000
                    CHANNELS 3 Xrotation Yrotation Zrotation
                    End Site
                    {
                        OFFSET   0.010000   0.002000   0.060000
                    }
                }
            }
        }
    }
}
MOTION
Frames: 5
Frame Time:   0.008333
 -2.255591   0.906543   5.447730  -9.662565  -5.858857   0.599795  10.803108  -3.823093  -1.190665   3.843191  -5.785514   1.168738   2.655880   0.141333   0.587774   2.236014  -1.933952   1.301301   4.305152   3.203518  53.369455  -0.009148  81.882036   0.009266  -1.266158   2.517723  -7.233806   3.477221 -10.720213  -2.287256   6.858795 -26.240177 -50.330165  -0.025763 -77.391790  -0.023322   0.625109  -3.190928   5.872201   0.163064  -3.447136  -0.657333  23.930405  -0.000369  -0.001710 -14.880773  -5.206891  -5.212221   0.029939   0.000083  -0.000006 -14.177124   3.821146   5.221591  68.307231  -0.015823  -0.002701  -4.261596   4.274059  -4.964585  -5.188989  -0.006933   0.001948
 -2.255294   0.906469   5.450091  -9.796311  -6.380758   0.564115  10.979536  -3.636905  -1.232183   3.894311  -5.636570   1.073604   2.560492   0.145102   0.687334   2.264497  -1.781227   1.433977   4.467748   3.743774  53.282834  -0.017573  81.578311   0.017733  -1.165722   2.556794  -7.163719   3.569659 -10.506561  -2.490731   7.193455 -25.621852 -49.881860  -0.013307 -76.712484  -0.011028   0.688215  -3.198194   5.604921   0.368648  -3.207571  -0.739600  24.014595  -0.000311  -0.001587 -15.025957  -4.913805  -5.134820   0.025467   0.000067  -0.000005 -14.802037   3.756006   5.449293  68.127477  -0.011923  -0.001936  -4.444036   4.543883  -4.789072  -4.983493  -0.006496   0.001473
 -2.254967   0.906377   5.452371  -9.904589  -6.878784   0.511537  11.152047  -3.449201  -1.256339   3.934080  -5.471355   0.992610   2.465499   0.145336   0.777656   2.296196  -1.619089   1.564358   4.625857   4.263135  53.208148  -0.023775  81.287746   0.023939  -1.072341   2.547855  -6.999049   3.648067 -10.282087  -2.655398   7.503114 -25.009743 -49.439928  -0.003427 -76.063101  -0.001506   0.740487  -3.142635   5.459118   0.548918  -2.982423  -0.804378  24.087169  -0.000260  -0.001453 -15.159924  -4.629745  -5.056610   0.021124   0.000054  -0.000004 -15.422248   3.654855   5.691491  67.763488  -0.008031  -0.001086  -4.622595   4.796387  -4.622574  -4.792830  -0.006038   0.001052
 -2.254575   0.906258   5.454622 -10.009847  -7.343757   0.447656  11.326714  -3.258975  -1.268364   3.976497  -5.299352   0.929208   2.377527   0.145240   0.861234   2.325290  -1.460044   1.689951   4.773769   4.752698  53.140551  -0.027744  81.015994   0.027888  -0.984129   2.527735  -6.806007   3.717920 -10.060877  -2.790885   7.788391 -24.423415 -49.017816   0.003750 -75.453226   0.005268   0.787573  -3.058161   5.373850   0.726233  -2.773455  -0.861020  24.159496  -0.000214  -0.001336 -15.295212  -4.361902  -4.979402   0.018038   0.000044  -0.000003 -16.037376   3.539589   5.937111  67.355915  -0.004828  -0.000352  -4.792798   5.032054  -4.465948  -4.619003  -0.005535   0.000718
 -2.254096   0.906117   5.456879 -10.117641  -7.776095   0.378322  11.500084  -3.068882  -1.271441   4.023503  -5.125512   0.879559   2.297225   0.145311   0.939295   2.351504  -1.306833   1.810202   4.911597   5.212441  53.078382  -0.029930  80.762220   0.030037  -0.899718   2.506146  -6.605594   3.783063  -9.846570  -2.907531   8.051836 -23.867034 -48.620760   0.008711 -74.882289   0.009863   0.831477  -2.962981   5.317804   0.907893  -2.578991  -0.917405  24.233006  -0.000171  -0.001236 -15.435658  -4.111342  -4.903829   0.016787   0.000035  -0.000002 -16.640469   3.421177   6.175002  66.947765  -0.002387   0.000235  -4.953618   5.251795  -4.319078  -4.461065  -0.005004   0.000461
